<svg xmlns="http://www.w3.org/2000/svg" viewBox="0 0 640 400" role="img" aria-labelledby="title">
  <title id="title">Một nhóm người đang thảo luận trong phòng họp</title>
  <rect width="640" height="400" rx="32" fill="#f0fdfa"/>
  <ellipse cx="320" cy="286" rx="224" ry="70" fill="#fef3c7" stroke="#134e4a" stroke-width="8"/>
  <g fill="#f4b183">
    <circle cx="170" cy="140" r="34"/><circle cx="320" cy="102" r="34"/><circle cx="470" cy="140" r="34"/>
  </g>
  <g fill="#0f766e">
    <path d="M118 238c4-62 20-92 52-92s48 30 52 92z"/><path d="M268 210c4-62 20-92 52-92s48 30 52 92z"/><path d="M418 238c4-62 20-92 52-92s48 30 52 92z"/>
  </g>
  <path d="M252 274h136v74H252z" fill="#fff" stroke="#f97316" stroke-width="8"/>
  <path d="M284 300h72" stroke="#0f766e" stroke-width="8" stroke-linecap="round"/>
</svg>
